<?xml version="1.0" encoding="UTF-8" standalone="no"?>
<!DOCTYPE svg PUBLIC "-//W3C//DTD SVG 1.1//EN" "http://www.w3.org/Graphics/SVG/1.1/DTD/svg11.dtd">
<svg width="100%" height="100%" viewBox="0 0 5068 1024" version="1.1" xmlns="http://www.w3.org/2000/svg" xmlns:xlink="http://www.w3.org/1999/xlink" xml:space="preserve" xmlns:serif="http://www.serif.com/" style="fill-rule:evenodd;clip-rule:evenodd;stroke-linejoin:round;stroke-miterlimit:2;">
    <g transform="matrix(1,0,0,1,-4540,-10)">
        <g id="Artboard4" transform="matrix(4.949219,0,0,1,-17930.123745,-0.026718)">
            <rect x="4540.136" y="10.027" width="1024" height="1024" style="fill:none;"/>
            <g transform="matrix(0.259597,0,0,1.2848,4269.42065,6.91303)">
                <g transform="matrix(1.496874,0,0,1.496874,816.864244,-260.27152)">
                    <path d="M507.47,392.478C507.507,392.354 508.047,391.777 508.074,390.461C508.076,390.383 508.085,389.933 508.047,389.494C507.649,384.899 507.901,376.736 507.838,316.498C507.831,310.27 508.21,308.542 506.583,308.172C506.221,308.089 470.724,308.164 456.5,308.129C449.389,308.111 449.079,308.584 445.798,306.1C442.012,303.235 436.929,299.528 436.153,298.963C424.405,290.396 424.387,290.432 423.37,289.682C422.916,289.348 396.286,269.987 396.184,269.908C393.728,268.001 381.161,259.077 379.344,257.723C375.035,254.511 375.121,254.14 375.126,251.499C375.17,223.843 374.893,223.857 375.093,221.462C375.107,221.282 375.219,219.938 376.533,219.732C377.467,219.585 522.271,219.713 553.5,219.676C577.011,219.648 605.714,218.349 639.327,235.838C640.984,236.7 644.263,238.739 645.541,239.432C647.074,240.262 657.206,247.042 662.741,252.251C664.279,253.699 687.409,273.734 694.842,307.425C696.106,313.15 697.032,322.244 697.105,325.505C697.346,336.368 696.303,340.412 696.168,342.475C695.97,345.506 695.68,345.449 695.216,348.454C694.322,354.243 691.385,363.178 690.192,366.39C686.259,376.976 679.511,387.179 676.72,390.672C672.279,396.233 672.406,396.333 667.367,401.369C659.931,408.801 659.616,408.441 657.395,410.376C655.877,411.698 654.547,412.528 653.431,413.407C652.428,414.198 649.774,415.939 649.332,416.251C643.121,420.634 628.461,427.992 624.563,428.702C623.241,428.943 623.268,429.043 623.153,429.059C622.991,429.081 622.818,428.884 622.672,428.958C622.361,429.115 622.11,429.39 621.921,429.682C621.236,430.737 624.165,430.917 624.386,430.931C626.96,431.089 626.919,431.291 629.44,431.782C631.952,432.271 631.931,432.285 634.399,432.963C655.03,438.631 667.08,446.96 669.546,448.429C672.52,450.2 681.356,456.975 685.304,460.718C714.083,488.004 717.086,523.082 717.333,524.531C718.824,533.276 718.825,542.999 718.64,547.506C718.607,548.305 718.379,553.826 718.042,557.477C717.84,559.665 717.425,560.687 717.236,562.47C716.863,565.997 716.74,565.956 716.065,569.431C711.634,592.252 699.288,611.343 691.796,619.763C688.517,623.447 688.628,623.533 687.621,624.609C681.814,630.809 675.442,635.667 672.306,638.253C671.75,638.712 664.809,643.328 664.502,643.503C660.399,645.839 645.879,655.605 622.475,660.38C621.131,660.655 611.937,662.53 605.526,662.995C599.057,663.463 599.072,663.605 598.51,663.643C590.719,664.165 323.019,663.752 313.497,663.901C310.524,663.947 309.343,664.493 309.262,661.506C309.059,654.053 309.05,653.954 309.523,653.524C310.04,653.055 311.359,653.42 311.512,653.463C312.695,653.79 323.167,656.689 326.483,656.837C330.007,656.993 329.983,657.045 333.469,657.668C335.526,658.035 344.383,658.369 345.527,655.514C345.767,654.917 347.317,651.046 339.546,650.136C333.791,649.463 333.197,649.274 332.011,646.728C330.453,643.384 328.775,642.471 331.116,639.211C335.635,632.92 338.372,615.846 339.908,611.659C340.142,611.022 340.711,609.469 344.704,604.662C352.731,594.998 352.41,592.735 353.846,589.653C356.342,584.297 359.584,575.872 364.105,567.303C365.232,565.167 364.997,564.652 366.516,564.131C367.51,563.79 367.326,564.378 367.82,565.304C371.909,572.988 373.383,578.259 373.713,579.439C377.803,594.065 379.443,594.619 382.779,602.378C387.489,613.331 391.549,622.133 392.686,630.474C392.942,632.355 391.792,633.461 392.603,635.449C393.054,636.555 394.458,637.44 394.505,637.495C396.143,639.418 393.62,645.16 396.699,647.204C397.983,648.056 405.561,648.703 406.378,648.96C406.602,649.03 407.938,649.449 407.805,651.523C407.763,652.187 407.572,652.836 407.547,653.5C407.535,653.809 407.595,654.122 407.694,654.415C408.485,656.764 416.931,655.731 417.524,655.585C422.585,654.338 423.289,652.886 423.617,652.66C425.497,651.361 432.683,652.795 438.792,647.856C442.042,645.23 447.78,645.082 448.678,641.553C449.144,639.721 447.487,634.695 444.57,634.159C441.012,633.506 435.96,636.159 434.915,635.146C434.374,634.622 432.143,626.631 433.147,621.433C433.422,620.012 433.62,618.989 439.249,604.399C449.75,577.183 448.232,576.337 453.273,570.321C458.087,564.577 458.917,561.135 463.662,552.595C465.133,549.949 464.762,549.548 465.485,549.461C466.888,549.294 466.601,549.94 466.97,551.288C467.943,554.841 469.869,557.997 472.507,568.498C472.687,569.213 473.801,576.71 473.97,578.467C474.411,583.032 476.926,597.59 477.458,599.513C478.868,604.607 478.721,604.622 479.235,606.563C480.821,612.556 480.974,612.503 482.421,618.52C484.05,625.294 483.705,625.351 484.393,628.525C486.477,638.153 485.395,638.62 487.315,640.668C488.866,642.322 490.283,642.513 491.378,642.9C494.986,644.178 493.402,646.355 494.905,651.394C495.415,653.105 495.488,654.683 504.464,654.002C509.051,653.653 508.789,652.632 509.788,651.894C511.69,650.489 513.104,652.634 524.41,650.08C533.351,648.06 533.368,647.698 536.549,648.194C541.458,648.959 546.537,647.911 547.522,647.556C550.441,646.504 549.286,643.426 548.45,642.548C547.234,641.27 542.437,640.363 538.53,640.1C536.567,639.968 536.638,639.486 536.27,637.549C536.111,636.708 536.044,636.738 535.206,634.619C533.834,631.146 535.96,631.157 537.18,630.149C538.944,628.691 541.404,623.321 542.75,619.594C546.339,609.653 545.909,609.343 550.603,603.583C555.795,597.212 555.949,597.01 556.395,596.424C564.199,586.19 561.625,583.22 572.203,565.338C574.665,561.175 574.537,561.107 574.789,560.771C574.867,560.665 575.498,559.821 576.422,560.604C577.145,561.217 576.907,561.359 577.793,563.382C579.079,566.322 581.891,571.794 582.879,575.401C583.211,576.615 585.233,583.999 587.984,590.282C589.768,594.357 590.404,594.051 597.749,612.404C603.62,627.072 602.526,630.308 602.341,632.481C601.99,636.592 605.703,635.387 607.741,637.234C610.012,639.291 610.151,642.559 610.375,643.535C610.454,643.879 611.016,646.327 612.616,647.326C614.297,648.376 621.541,648.071 625.636,645.731C628.49,644.1 636.902,644.623 642.728,640.897C646.431,638.529 648.203,638.363 650.718,636.903C650.873,636.813 654.928,635.515 653.582,631.47C651.696,625.804 642.325,629.115 640.511,629.01C639.461,628.948 635.014,627.262 634.897,627.09C634.883,627.069 634.885,625.757 634.9,625.718C634.907,625.7 636.399,624.679 635.329,622.585C635.054,622.049 630.754,614.299 630.355,613.579C625.551,604.922 622.347,602.336 619.369,595.561C618.444,593.456 615.125,587.914 614.891,580.49C614.682,573.838 613.453,573.712 612.162,568.585C611.901,567.549 610.169,560.667 609.168,555.572C607.682,548.011 604.51,542.134 603.08,533.562C601.253,522.606 600.992,522.639 600.834,518.484C600.702,514.985 600.383,515.03 600.014,511.538C599.443,506.14 597.872,506.035 599.268,503.368C600.584,500.856 599.219,494.761 600.468,493.468C601.691,492.202 607.967,494.51 609.435,494.803C611.452,495.206 611.431,495.221 613.422,495.784C619.895,497.616 619.943,497.329 620.496,497.511C624.003,498.658 622.131,501.277 627.569,504.395C629.437,505.466 629.734,507.351 630.464,507.571C632.192,508.093 632.403,506.229 634.503,505.855C634.841,505.794 635.193,505.88 635.534,505.832C635.674,505.813 635.65,505.809 637.389,505.221C637.699,505.117 640.954,504.47 642.872,502.999C645.988,500.61 643.256,497.806 643.394,496.483C643.531,495.169 645.955,494.943 646.491,494.995C647.175,495.061 647.835,495.296 648.517,495.38C649.467,495.497 651.682,494.727 655.497,494.743C659.083,494.758 660.316,495.471 660.502,495.482C662.331,495.598 661.907,492.626 661.922,492.588C661.976,492.456 662.437,491.322 663.453,491.674C663.742,491.775 670.516,495.662 672.313,496.797C682.135,502.999 682.572,502.523 684.685,505.352C685.384,506.288 685.168,506.39 685.709,507.411C687.507,510.805 687.939,507.681 687.937,507.503C687.926,506.649 684.863,500.178 684.033,498.805C683.65,498.173 676.937,490.507 676.218,489.759C672.85,486.256 666.179,482.796 661.503,482.831C656.065,482.871 656.069,482.811 655.618,482.947C655.416,483.009 652.52,483.884 654.616,485.396C654.836,485.555 655.174,485.455 655.405,485.598C655.735,485.802 656.08,486.052 656.245,486.403C656.306,486.532 656.005,486.557 655.9,486.653C655.285,487.22 655.286,487.221 654.492,487.488C653.574,487.797 651.641,489.199 651.407,489.369C649.069,491.065 647.721,491.04 642.496,491.46C638.659,491.769 638.679,489.846 630.454,488.87C626.375,488.385 626.126,489.42 622.479,487.537C622.138,487.361 616.001,483.626 615.61,483.343C610.195,479.422 609.46,480.364 604.121,474.873C602.783,473.497 601.361,472.418 601.109,470.549C600.814,468.35 600.88,458.546 600.887,457.503C600.928,451.464 602.922,444.925 603.028,437.504C603.13,430.391 600.048,417.848 597.719,414.365C594.87,410.103 592.296,410.825 593.545,407.519C594.917,403.882 595.89,403.724 600.449,403.074C603.818,402.593 603.464,401.748 604.732,398.604C606.055,395.322 605.629,393.236 606.418,392.426C606.92,391.912 607.657,391.683 608.199,391.212C609.156,390.381 608.31,388.849 608.211,388.671C606.964,386.414 606.498,386.379 607.156,382.439C607.636,379.57 606.971,377.162 607.229,376.389C607.753,374.814 612.522,376.305 613.424,376.043C615.134,375.548 614.53,374.653 614.448,374.532C614.052,373.946 611.545,373.593 609.617,373.099C606.621,372.331 607.037,371.546 606.782,368.467C606.713,367.643 605.916,363.229 603.821,360.29C601.961,357.682 601.471,356.77 598.371,354.697C589.329,348.649 577.809,351.008 571.794,356.806C564.589,363.752 565.145,373.781 565.103,375.496C565.005,379.477 562.784,378.707 562.735,380.506C562.702,381.732 564.262,381.881 564.437,381.897C566.468,382.091 566.434,381.773 568.382,381.152C576.255,378.641 576.942,380.525 577.005,380.715C577.643,382.636 572.628,383.547 571.825,386.551C571.389,388.181 573.658,397.573 570.609,398.762C569.346,399.254 569.198,398.875 566.521,400.529C565.453,401.189 564.602,402.16 564.368,402.345C561.574,404.559 556.647,403.946 552.295,408.295C547.634,412.954 547.088,418.457 546.812,419.58C545.444,425.157 544.889,431.132 544.82,431.553C543.673,438.628 544.254,448.946 544.093,455.492C544.033,457.961 542.353,458.26 540.662,458.924C539.765,459.276 530.604,462.872 529.412,463.24C526.868,464.025 526.946,462.291 525.584,461.389C520.15,457.788 512.627,459.333 511.515,459.562C509.888,459.896 509.686,460.111 504.818,457.021C501.025,454.613 498.914,454.3 496.366,452.737C490.983,449.436 491.279,448.755 490.427,442.509C489.395,434.943 490.941,418.756 491.426,416.482C492.623,410.876 491.398,410.882 489.583,402.495C489.729,402.402 491.408,401.335 491.408,401.335C491.538,401.232 491.573,401.034 491.708,400.938C491.739,400.917 495.965,399.151 499.778,396.971C503.496,394.844 505.461,394.361 507.47,392.478Z" style="fill:rgb(40,45,101);"/>
                    <path d="M310.292,603.034C310.075,602.789 308.691,602.667 308.969,600.506C308.982,600.404 309.154,599.702 309.234,598.502C309.431,595.565 309.32,309.62 309.31,284.5C309.288,226.509 309.197,226.512 309.264,221.47C309.291,219.419 310.123,218.858 311.673,220.209C314.834,222.964 327.099,231.823 328.707,233.226C329.151,233.614 336.665,239.413 337.296,239.824C339.215,241.074 356.095,254.096 358.35,255.707C360.035,256.91 360.057,256.858 366.783,262.101C369.98,264.593 370.03,264.524 370.304,264.746C371.952,266.075 372.001,265.986 373.676,267.276C377.317,270.081 377.348,270.032 377.66,270.281C380.172,272.285 380.25,272.152 382.796,274.114C397.954,285.788 398.137,285.522 399.365,286.642C400.945,288.083 401.135,287.801 402.782,289.137C410.392,295.31 412.578,296.189 415.845,299.087C417.724,300.754 417.874,300.527 419.822,302.137C421.759,303.738 421.91,303.52 423.836,305.113C426.923,307.666 430.024,309.622 431.766,311.209C432.611,311.979 437.832,315.71 439.727,317.182C440.211,317.558 452.939,327.003 455.694,329.234C461.288,333.761 463.857,334.976 464.023,335.726C464.661,338.608 460.199,338.743 457.328,347.444C455.434,353.184 455.637,356.125 455.59,356.514C455.294,358.959 452.907,358.385 453.259,360.57C453.637,362.911 458.74,360.323 463.548,360.108C467.918,359.913 465.485,362.142 465.314,362.287C465.119,362.452 464.832,362.474 464.625,362.625C459.47,366.374 462.22,370.895 459.931,376.7C459.067,378.89 458.022,377.388 454.294,379.034C449.018,381.364 448.925,381.204 447.396,382.361C446.278,383.207 444.026,384.503 443.68,384.767C440.77,386.997 436.25,392.574 434.906,394.739C432.738,398.231 432.685,398.195 432.523,398.513C431.046,401.419 429.549,403.911 429.273,404.371C423.853,413.392 418.267,428.858 416.851,431.665C416.238,432.879 415.864,434.93 415.321,436.437C414.089,439.858 414.652,439.946 415.141,443.557C415.718,447.825 417.608,447.513 421.547,449.399C424.396,450.763 424.428,450.657 427.294,451.951C434.658,455.277 435.572,454.362 436.222,456.55C436.483,457.43 435.839,464.822 435.776,465.539C435.386,470.018 437.968,470.679 436.246,474.389C432.252,482.988 433.632,484.34 431.502,484.574C431.4,484.586 428.344,484.1 426.539,483.398C419.911,480.819 418.566,482.521 415.429,481.763C413.319,481.253 394.154,469.843 393.212,464.552C393.149,464.199 393.12,452.009 393.26,447.498C393.477,440.462 394.091,440.521 394.271,433.495C394.327,431.308 393.84,425.874 393.558,424.489C391.973,416.699 391.813,416.175 391.598,415.468C390.54,411.993 390.672,411.982 389.859,408.423C388.826,403.902 383.93,403.248 383.606,399.484C383.363,396.647 385.584,395.489 386.587,394.596C388.63,392.775 388.848,393.159 391.544,392.773C393.964,392.428 394.213,390.713 395.221,388.374C395.969,386.64 396.033,384.263 396.237,383.407C396.612,381.831 399.84,381.272 398.165,377.678C396.602,374.326 397.123,374.186 397.215,370.496C397.265,368.482 396.969,367.606 396.966,367.463C396.963,367.303 396.937,366.107 397.541,365.545C398.242,364.893 401.95,365.195 403.718,364.857C404.76,364.658 404.876,364.449 404.628,363.431C404.455,362.721 399.755,361.901 398.718,361.21C396.393,359.662 398.583,353.214 389.753,345.22C383.233,339.317 372.235,341.195 370.55,341.698C365.283,343.27 363.479,344.959 362.555,345.573C360.009,347.266 357.506,351.114 356.3,354.436C353.708,361.577 354.131,365.151 354.271,367.543C354.437,370.371 352.752,370.019 352.745,371.499C352.733,374.558 359.044,372.002 359.575,371.884C363.262,371.066 363.251,371.031 363.574,370.977C364.802,370.771 367.246,370.916 367.583,371.448C368.785,373.349 363.829,375.222 363.454,375.439C361.543,376.542 362.76,379.334 363.06,381.54C363.19,382.491 363.167,388.278 362.906,389.617C362.474,391.832 360.05,390.196 356.326,393.296C351.808,397.056 345.366,397.82 342.282,401.333C338.754,405.353 338.251,408.528 337.45,410.481C335.086,416.238 335.465,419.046 334.79,423.542C334.02,428.668 334.12,428.671 334.118,439.5C334.116,446.091 334.266,446.132 333.499,448.499C332.069,452.908 335.194,458.782 335.71,460.417C336.719,463.614 336.975,463.499 338.329,466.567C342.005,474.895 343.937,475.539 343.355,480.481C342.865,484.647 343.399,485.204 342.78,488.545C341.774,493.971 342.206,494.014 341.294,499.446C340.901,501.784 337.996,500.609 335.57,500.179C332.088,499.563 333.709,497.986 333.854,492.513C334.046,485.197 333.872,485.023 333.422,484.574C332.6,483.753 327.451,483.986 326.705,484.682C325.332,485.963 326.612,494.479 325.743,501.531C324.721,509.811 324.787,509.81 324.674,510.525C323.339,518.978 323.593,518.993 322.889,527.536C322.875,527.711 322.763,529.072 323.256,529.696C324.373,531.111 335.762,533.742 336.431,533.88C341.003,534.825 342.811,534.851 341.75,538.57C339.184,547.564 339.277,547.584 339.041,548.362C337.511,553.405 338.125,555.129 334.061,560.169C331.769,563.012 329.37,567.619 328.75,568.644C326.723,571.997 324.916,575.879 324.162,577.333C318.489,588.277 317.904,588.189 312.592,598.556C310.922,601.817 311.227,601.943 311.078,602.224C310.902,602.556 310.468,602.701 310.292,603.034Z" style="fill:rgb(238,131,17);"/>
                    <path d="M553.096,487.491C552.613,495.039 552.422,495.004 551.092,502.44C550.464,505.949 549.441,506.64 548.517,506.757C547.8,506.849 543,506.182 542.696,506.053C541.939,505.735 541.842,504.625 541.83,504.482C541.601,501.861 542.366,494.075 541.116,492.895C540.484,492.299 534.075,490.55 533.366,492.434C532.591,494.492 533.9,502.715 532.554,513.506C531.807,519.491 532.241,519.514 531.617,525.511C530.564,535.626 531.427,535.97 532.512,536.478C534.535,537.426 543.206,539.631 545.46,539.862C548.211,540.144 548.212,540.118 548.603,540.214C550.01,540.561 549.61,542.324 549.566,542.519C549.296,543.708 545.327,552.929 545.125,553.249C544.959,553.513 539.209,559.985 534.585,569.545C533.993,570.768 533.948,570.719 526.956,584.719C519.748,599.151 518.418,598.718 517.057,607.455C516.586,610.48 516.433,610.433 516.058,613.46C516.01,613.847 515.1,619.573 514.667,621.544C514.359,622.946 514.744,623.016 514.184,624.342C514.093,624.558 513.748,624.517 513.54,624.626C513.31,624.746 513.128,625.071 512.872,625.027C512.475,624.96 510.6,619.203 507.119,610.648C506.333,608.716 506.332,608.718 505.317,601.527C504.949,598.924 505.103,598.927 504.78,596.457C504.655,595.498 504.467,595.49 503.859,591.457C503.476,588.92 503.161,589.001 502.862,586.472C502.484,583.272 501.534,580.993 501.75,573.506C502.115,560.811 503.174,560.679 501.327,554.557C499.361,548.042 495.658,534.015 494.292,530.577C491.816,524.348 487.5,515.869 486.731,512.445C485.194,505.611 486.574,505.441 485.315,498.537C484.766,495.53 485.168,495.458 484.143,492.574C484.083,492.404 483.382,490.432 484.431,490.339C484.785,490.307 485.178,490.346 485.482,490.532C485.887,490.78 486.068,491.296 486.452,491.578C487.77,492.546 489.7,491.091 490.56,490.831C490.613,490.815 491.354,490.75 492.456,490.391C493.795,489.954 493.772,489.923 494.529,489.756C496.111,489.41 496.062,489.297 497.331,488.283C498.033,487.723 500.848,486.944 500.201,484.592C499.84,483.282 498.019,481.668 502.403,480.216C503.926,479.712 508.823,478.558 509.121,478.122C509.159,478.067 509.219,476.778 509.181,476.615C509.116,476.335 508.544,473.875 506.461,474.274C506.356,474.294 504.244,475.154 502.491,475.206C496.266,475.391 496.177,475.054 495.089,473.903C491.105,469.688 491.009,469.771 490.746,469.342C489.213,466.833 492.305,467.415 492.508,467.453C497.001,468.299 503.782,468.585 505.442,469.599C506.171,470.045 509.937,473.342 511.313,473.97C513.574,474.999 513.808,474.695 515.422,476.57C516.307,477.598 516.271,478.011 517.591,477.678C517.823,477.62 518.687,476.531 519.404,476.253C519.571,476.188 519.609,476.319 521.546,475.611C523.914,474.745 529.081,473.928 529.55,471.511C529.655,470.975 529.115,468.485 530.658,467.847C531.238,467.607 534.147,466.504 534.451,466.389C541.92,463.558 543.444,461.725 544.475,464.51C546.346,469.562 546.437,469.51 548.808,474.354C549.786,476.352 550.204,477.757 551.233,479.632C551.354,479.852 551.536,480.183 552.461,482.515C553.385,484.845 553.094,487.447 553.096,487.491Z" style="fill:rgb(39,44,99);"/>
                    <path d="M436.914,514.469C437.056,515.938 437.48,516.727 436.597,519.528C434.337,526.701 435.343,538.254 435.079,542.483C434.809,546.819 430.274,552.395 429.612,553.572C427.081,558.075 423.089,562.742 421.206,570.435C418.293,582.338 415.347,591.57 414.193,594.383C412.347,598.879 412.7,599.071 412.352,599.307C412.065,599.501 411.065,599.37 410.961,599.217C410.866,599.079 410.903,599.069 410.752,597.437C410.559,595.341 407.906,588.555 407.866,585.498C407.817,581.694 407.926,581.578 405.901,576.329C405.484,575.249 403.934,571.23 401.851,562.428C400.012,554.656 399.931,554.685 395.254,539.517C395.655,539.202 395.532,538.579 397.573,537.698C399.025,537.07 399.055,537.148 400.372,536.282C401.146,535.772 409.835,531.247 410.662,530.816C412.631,529.79 412.638,529.847 413.4,529.325C415.215,528.083 416.396,527.917 419.337,526.231C420.003,525.85 422.099,524.819 423.307,524.142C426.884,522.136 430.531,520.466 432.361,519.259C432.403,519.231 435.141,517.824 435.479,517.424C435.629,517.247 435.545,516.943 435.688,516.76C436.063,516.283 436.71,516.029 436.997,515.493C437.158,515.191 436.752,514.771 436.914,514.469Z" style="fill:rgb(39,43,98);"/>
                    <path d="M436.914,514.469C436.752,514.771 437.158,515.191 436.997,515.493C436.71,516.029 436.063,516.283 435.688,516.76C435.545,516.943 435.629,517.247 435.479,517.424C435.141,517.824 432.403,519.231 432.361,519.259C430.531,520.466 426.884,522.136 423.307,524.142C422.099,524.819 420.003,525.85 419.337,526.231C416.396,527.917 415.215,528.083 413.4,529.325C412.638,529.847 412.631,529.79 410.662,530.816C409.835,531.247 401.146,535.772 400.372,536.282C399.055,537.148 399.025,537.07 397.573,537.698C395.532,538.579 395.655,539.202 395.254,539.517C392.089,528.751 391.915,521.482 391.786,520.459C391.284,516.465 391.185,516.497 390.857,512.466C390.529,508.438 390.349,508.474 389.989,504.46C389.521,499.223 389.119,499.18 389.681,497.572C391.203,493.221 390.376,493.096 390.527,488.502C390.612,485.91 392.028,486.022 401.452,488.704C406.558,490.156 408.42,490.113 410.705,491.006C413.94,492.271 412.481,494.365 417.269,496.994C419.356,498.14 419.644,498.771 420.523,499.477C422.203,500.827 422.449,501.309 428.479,499.437C432.936,498.053 433.011,500.179 433.239,501.543C433.764,504.691 435.836,510.004 436.914,514.469Z" style="fill:rgb(237,131,18);"/>
                    <path d="M507.47,392.478C505.461,394.361 503.496,394.844 499.778,396.971C495.965,399.151 491.739,400.917 491.708,400.938C491.573,401.034 491.538,401.232 491.408,401.335C491.408,401.335 489.729,402.402 489.583,402.495C487.974,398.292 487.614,394.138 481.416,390.617C478.66,389.052 481.313,387.205 482.426,385.445C484.347,382.408 487.538,382.953 489.527,382.79C493.814,382.438 493.318,376.302 494.488,375.484C494.612,375.398 495.507,374.772 496.37,375.628C497.192,376.443 496.911,382.337 497.24,383.57C498.085,386.737 505.615,388.555 506.436,390.578C506.552,390.862 506.392,391.224 506.539,391.494C506.755,391.89 507.254,392.081 507.47,392.478Z" style="fill:rgb(234,129,20);"/>
                    <path d="M662.585,485.205C664.295,485.742 664.285,485.74 667.505,487.494C667.655,487.576 669.146,488.388 669.302,488.637C669.364,488.736 669.978,489.712 669.289,490.094C668.436,490.567 664.251,487.774 662.636,487.144C660.696,486.387 660.702,486.404 660.646,486.348C660.435,486.14 660.394,485.81 660.236,485.559C660.155,485.431 659.884,485.364 659.934,485.222C660.154,484.591 661.374,484.827 661.5,484.851C661.874,484.924 662.212,485.133 662.585,485.205Z" style="fill:rgb(213,213,207);"/>
                </g>
                <g transform="matrix(4.430995,0,0,4.430995,-3681.845106,-3012.884803)">
                    <text x="1279.297px" y="804px" style="font-family:'AkagiPro-Black';font-size:98.273px;fill:rgb(238,131,17);">BHARA<tspan x="1579.129px " y="804px ">T</tspan></text>
                    <g transform="matrix(98.273444,0,0,98.273444,1902.448923,804)">
                    </g>
                    <text x="1631.706px" y="804px" style="font-family:'AkagiPro-Black';font-size:98.273px;fill:rgb(40,45,101);">WORK</text>
                </g>
            </g>
        </g>
    </g>
</svg>
